<?xml version="1.0" encoding="UTF-8" standalone="no"?>
<svg
   xmlns:dc="http://purl.org/dc/elements/1.1/"
   xmlns:cc="http://creativecommons.org/ns#"
   xmlns:rdf="http://www.w3.org/1999/02/22-rdf-syntax-ns#"
   xmlns:svg="http://www.w3.org/2000/svg"
   xmlns="http://www.w3.org/2000/svg"
   xmlns:sodipodi="http://sodipodi.sourceforge.net/DTD/sodipodi-0.dtd"
   xmlns:inkscape="http://www.inkscape.org/namespaces/inkscape"
   width="24"
   height="24"
   viewBox="0 0 24 24"
   id="svg2"
   version="1.1"
   inkscape:version="0.91 r13725"
   sodipodi:docname="icon-sound.svg"
   inkscape:export-filename="/home/facundo/devel/reps/recordium/media/icon-sound.png"
   inkscape:export-xdpi="240"
   inkscape:export-ydpi="240">
  <metadata
     id="metadata10">
    <rdf:RDF>
      <cc:Work
         rdf:about="">
        <dc:format>image/svg+xml</dc:format>
        <dc:type
           rdf:resource="http://purl.org/dc/dcmitype/StillImage" />
      </cc:Work>
    </rdf:RDF>
  </metadata>
  <defs
     id="defs8" />
  <sodipodi:namedview
     pagecolor="#ffffff"
     bordercolor="#666666"
     borderopacity="1"
     objecttolerance="10"
     gridtolerance="10"
     guidetolerance="10"
     inkscape:pageopacity="0"
     inkscape:pageshadow="2"
     inkscape:window-width="1887"
     inkscape:window-height="1026"
     id="namedview6"
     showgrid="false"
     inkscape:zoom="9.8333333"
     inkscape:cx="12"
     inkscape:cy="12"
     inkscape:window-x="33"
     inkscape:window-y="24"
     inkscape:window-maximized="1"
     inkscape:current-layer="svg2" />
  <path
     d="M18.586 10.081c-1.439 0-1.35 2.802-2.029 4.071-.114.211-.425.184-.5-.044-.771-2.364-.419-8.108-2.51-8.108-2.189 0-1.648 7.433-2.5 10.462-.063.23-.381.25-.474.028-.9-2.161-.799-6.875-2.502-6.875-1.762 0-1.612 3.949-2.302 5.54-.091.213-.392.22-.493.01-.503-1.049-.664-3.165-2.564-3.165h-2.213c-.275 0-.499.224-.499.499s.224.501.499.501h2.213c1.572 0 1.038 3.484 2.854 3.484 1.684 0 1.502-3.79 2.223-5.47.088-.208.382-.202.466.006.805 2.047.79 6.98 2.641 6.98 2.077 0 1.337-7.856 2.443-10.621.083-.211.384-.222.479-.012 1.029 2.25.487 8.126 2.344 8.126 1.639 0 1.737-2.706 2.23-4.038.081-.212.373-.227.474-.027.516 1.001.846 2.572 2.4 2.572h2.235c.275 0 .499-.224.499-.499 0-.276-.224-.5-.499-.5h-2.235c-1.323 0-1.117-2.92-2.68-2.92z"
     id="path4" />
</svg>
